<?xml version="1.0" encoding="utf-8"?>
<!-- Generator: Adobe Illustrator 19.1.0, SVG Export Plug-In . SVG Version: 6.00 Build 0)  -->
<svg version="1.1" xmlns="http://www.w3.org/2000/svg" xmlns:xlink="http://www.w3.org/1999/xlink" x="0px" y="0px"
	 viewBox="0 0 400 400" enable-background="new 0 0 400 400" xml:space="preserve">
<g id="Layer_2" display="none">
	<rect x="-927.25" y="-1370.091" display="inline" fill="#1C1C1C" width="1362.136" height="2279.07"/>
</g>
<g id="Layer_1">
	<circle fill="none" stroke="#50B848" stroke-width="8" stroke-miterlimit="10" cx="200.262" cy="200.201" r="192"/>
	<g>
		<g>
			<g>
				<path fill="#50B848" d="M101.143,170.611c-8.278-1.419-10.1-7.381-12.667-15.611c-2.728-8.732-6.407-20.481-22.206-21.942
					c-1.708-4.117-5.766-7.02-10.504-7.02c-6.272,0-11.363,5.09-11.363,11.362c0,6.28,5.091,11.366,11.363,11.366
					c4.606,0,8.566-2.749,10.351-6.688c9.22,1.075,11.09,7.028,13.767,15.607c1.301,4.164,2.813,9.008,5.762,13.096H66.203
					c-1.742-4.037-5.753-6.863-10.436-6.863c-6.272,0-11.363,5.091-11.363,11.366c0,6.276,5.091,11.363,11.363,11.363
					c4.682,0,8.694-2.83,10.436-6.867h71.343v-9.17H101.143z M55.767,143.961c-3.621,0-6.552-2.94-6.552-6.561
					c0-3.616,2.932-6.552,6.552-6.552c3.62,0,6.556,2.936,6.556,6.552C62.323,141.02,59.387,143.961,55.767,143.961z
					 M55.767,181.838c-3.621,0-6.552-2.932-6.552-6.552c0-3.62,2.932-6.556,6.552-6.556c3.62,0,6.556,2.936,6.556,6.556
					C62.323,178.906,59.387,181.838,55.767,181.838z"/>
				<path fill="#50B848" d="M133.226,220.645H66.203c-1.742-4.041-5.753-6.867-10.436-6.867c-6.272,0-11.363,5.086-11.363,11.366
					c0,6.272,5.091,11.354,11.363,11.354c4.682,0,8.694-2.821,10.436-6.858h19.444c-2.949,4.088-4.462,8.932-5.762,13.092
					c-2.677,8.579-4.546,14.528-13.767,15.607c-1.785-3.943-5.745-6.688-10.351-6.688c-6.272,0-11.363,5.086-11.363,11.358
					c0,6.263,5.091,11.354,11.363,11.354c4.738,0,8.796-2.902,10.504-7.016c15.799-1.462,19.478-13.198,22.206-21.93
					c2.567-8.231,4.389-14.188,12.667-15.599h32.083V220.645z M55.767,231.697c-3.621,0-6.552-2.936-6.552-6.552
					c0-3.62,2.932-6.561,6.552-6.561c3.62,0,6.556,2.94,6.556,6.561C62.323,228.761,59.387,231.697,55.767,231.697z M55.767,269.553
					c-3.621,0-6.552-2.932-6.552-6.544c0-3.616,2.932-6.552,6.552-6.552c3.62,0,6.556,2.936,6.556,6.552
					C62.323,266.621,59.387,269.553,55.767,269.553z"/>
				<path fill="#50B848" d="M137.546,195.571H88.277c-1.746-4.037-5.757-6.867-10.436-6.867c-6.267,0-11.358,5.09-11.358,11.366
					c0,6.276,5.09,11.366,11.358,11.366c4.606,0,8.566-2.749,10.351-6.688h49.354C137.546,204.222,137.546,196.077,137.546,195.571z
					 M77.841,206.627c-3.616,0-6.548-2.936-6.548-6.557c0-3.616,2.932-6.556,6.548-6.556c3.62,0,6.556,2.94,6.556,6.556
					C84.397,203.691,81.461,206.627,77.841,206.627z"/>
			</g>
			<g>
				<path fill="#50B848" d="M259.315,179.717v0.064h75.006c1.742,4.037,5.758,6.867,10.436,6.867
					c6.276,0,11.363-5.086,11.363-11.363c0-6.276-5.086-11.366-11.363-11.366c-4.678,0-8.694,2.826-10.436,6.863h-19.444
					c2.944-4.088,4.462-8.932,5.757-13.096c2.686-8.579,4.546-14.532,13.776-15.607c1.78,3.939,5.737,6.688,10.347,6.688
					c6.276,0,11.363-5.086,11.363-11.366c0-6.272-5.086-11.362-11.363-11.362c-4.733,0-8.795,2.902-10.504,7.02
					c-15.799,1.462-19.474,13.21-22.206,21.942c-2.567,8.231-4.389,14.193-12.667,15.611h-40.065V179.717z M344.757,168.729
					c3.616,0,6.552,2.936,6.552,6.556c0,3.621-2.936,6.552-6.552,6.552c-3.625,0-6.561-2.932-6.561-6.552
					C338.196,171.665,341.132,168.729,344.757,168.729z M344.757,130.848c3.616,0,6.552,2.936,6.552,6.552
					c0,3.62-2.936,6.561-6.552,6.561c-3.625,0-6.561-2.94-6.561-6.561C338.196,133.784,341.132,130.848,344.757,130.848z"/>
				<path fill="#50B848" d="M267.955,229.819h31.425c8.278,1.411,10.1,7.368,12.667,15.599c2.732,8.732,6.407,20.468,22.206,21.93
					c1.708,4.114,5.77,7.016,10.504,7.016c6.276,0,11.363-5.091,11.363-11.354c0-6.272-5.086-11.358-11.363-11.358
					c-4.61,0-8.566,2.745-10.347,6.688c-9.229-1.079-11.09-7.028-13.776-15.607c-1.296-4.16-2.813-9.004-5.757-13.092h19.444
					c1.742,4.037,5.758,6.858,10.436,6.858c6.276,0,11.363-5.082,11.363-11.354c0-6.28-5.086-11.366-11.363-11.366
					c-4.678,0-8.694,2.826-10.436,6.867h-66.366C267.955,220.645,267.967,229.772,267.955,229.819z M344.757,256.457
					c3.616,0,6.552,2.936,6.552,6.552c0,3.612-2.936,6.544-6.552,6.544c-3.625,0-6.561-2.932-6.561-6.544
					C338.196,259.393,341.132,256.457,344.757,256.457z M344.757,218.584c3.616,0,6.552,2.94,6.552,6.561
					c0,3.616-2.936,6.552-6.552,6.552c-3.625,0-6.561-2.936-6.561-6.552C338.196,221.525,341.132,218.584,344.757,218.584z"/>
				<path fill="#50B848" d="M309.196,204.749c1.78,3.939,5.745,6.688,10.351,6.688c6.267,0,11.358-5.09,11.358-11.366
					c0-6.276-5.091-11.366-11.358-11.366c-4.683,0-8.694,2.83-10.436,6.867h-45.476v9.178H309.196z M319.547,193.514
					c3.612,0,6.548,2.94,6.548,6.556c0,3.621-2.936,6.557-6.548,6.557c-3.62,0-6.556-2.936-6.556-6.557
					C312.991,196.455,315.927,193.514,319.547,193.514z"/>
			</g>
		</g>
		<g id="VNskE7.tif">
			<g>
				<path fill="#FFFFFF" d="M122.021,308.621c-3.046-0.533-5.93-1.038-8.962-1.569c12.66-71.798,25.288-143.415,37.946-215.195
					c2.99,0.514,5.823,1.001,8.965,1.541C147.317,165.151,134.683,236.804,122.021,308.621z"/>
				<path fill="#FFFFFF" d="M278.506,308.632c-12.663-71.816-25.29-143.432-37.948-215.219c3.039-0.53,5.924-1.033,8.96-1.563
					c12.66,71.794,25.288,143.411,37.946,215.199C284.458,307.58,281.621,308.081,278.506,308.632z"/>
				<path fill="#FFFFFF" d="M195.842,254.977c3.026,0,5.907,0,8.877,0c0,18.14,0,36.185,0,54.383c-2.897,0-5.823,0-8.877,0
					C195.842,291.299,195.842,273.209,195.842,254.977z"/>
				<path fill="#FFFFFF" d="M204.68,236.566c-3.009,0-5.889,0-8.865,0c0-15.098,0-30.109,0-45.276c2.881,0,5.807,0,8.865,0
					C204.68,206.298,204.68,221.353,204.68,236.566z"/>
				<path fill="#FFFFFF" d="M195.851,136.576c3.001,0,5.88,0,8.858,0c0,12.105,0,24.125,0,36.237c-2.965,0-5.844,0-8.858,0
					C195.851,160.782,195.851,148.762,195.851,136.576z"/>
				<path fill="#FFFFFF" d="M195.851,91.041c3.004,0,5.882,0,8.859,0c0,9.071,0,18.056,0,27.131c-2.969,0-5.847,0-8.859,0
					C195.851,109.174,195.851,100.189,195.851,91.041z"/>
			</g>
		</g>
	</g>
</g>
</svg>
