<svg xmlns="http://www.w3.org/2000/svg" width="75" height="75" viewBox="0 0 75 75"><path fill="#2A8BDB" d="M1.074 40.03c-.88-1.526-.89-4.028-.018-5.56L16.692 6.985c.87-1.532 3.026-2.776 4.79-2.764l31.62.206c1.76.01 3.924 1.27 4.805 2.796l16.02 27.75c.88 1.526.89 4.028.018 5.56L58.31 68.016c-.873 1.532-3.027 2.776-4.79 2.764l-31.62-.204c-1.762-.01-3.925-1.27-4.806-2.796L1.074 40.03z"/><path fill="none" stroke="#2A8BDB" stroke-miterlimit="10" d="M1.074 40.03c-.88-1.526-.89-4.028-.018-5.56L16.692 6.985c.87-1.532 3.026-2.776 4.79-2.764l31.62.206c1.76.01 3.924 1.27 4.805 2.796l16.02 27.75c.88 1.526.89 4.028.018 5.56L58.31 68.016c-.873 1.532-3.027 2.776-4.79 2.764l-31.62-.204c-1.762-.01-3.925-1.27-4.806-2.796L1.074 40.03z"/><path opacity=".2" fill="#FFF" d="M55.836 5.258s-.144-.092-.413-.222c-.218-.105-.452-.22-.705-.303-.533-.173-.696-.2-.763-.214-.26-.055-.56-.094-.83-.096-.197 0-31.586-.204-31.586-.204s-.532 0-.96.093c-.428.093-.71.19-.996.304-.285.115-.66.308-.897.444-.236.137-.76.5-.963.693s-.352.334-.402.39l-.213.244c-.05.053-.25.332-.262.35-.01.017-.078.11-.112.17L1.602 33.51s-.658 1.082-.85 1.625c-.083.232-.16.514-.214.78-.072.357-.107.687-.116.856-.006.13-.016.317-.013.503.003.243.02.493.03.603.014.2.087.647.117.778s.107.418.13.483c.007.017.088.255.1.282.01.026.08.205.124.296.017.032.096.196.1.2l16.125 27.937s.213.317.24.35c.01.013.158.207.232.286.048.05.154.17.21.223.056.054.146.144.188.18.038.035.172.155.214.19.04.034.202.163.245.196l.284.202c.014.01 37.086-64.223 37.086-64.224z"/></svg>
