<?xml version="1.0" encoding="utf-8"?>
<!-- Generator: Adobe Illustrator 17.0.0, SVG Export Plug-In . SVG Version: 6.00 Build 0)  -->
<!DOCTYPE svg PUBLIC "-//W3C//DTD SVG 1.1//EN" "http://www.w3.org/Graphics/SVG/1.1/DTD/svg11.dtd">
<svg version="1.1" id="Layer_1" xmlns="http://www.w3.org/2000/svg" xmlns:xlink="http://www.w3.org/1999/xlink" x="0px" y="0px"
	 width="75px" height="75px" viewBox="0 0 75 75" enable-background="new 0 0 75 75" xml:space="preserve">
<path fill="#0070A8" d="M2.289,40.484c-1.01-1.743-1.024-4.602-0.031-6.355L16.929,8.232c0.993-1.752,3.453-3.179,5.467-3.169
	l29.764,0.14c2.014,0.009,4.489,1.443,5.499,3.186l15.133,26.107c1.01,1.743,1.024,4.602,0.031,6.355L58.151,66.747
	c-0.993,1.752-3.453,3.178-5.467,3.169l-29.764-0.14c-2.014-0.009-4.488-1.443-5.499-3.186L2.289,40.484L2.289,40.484z"/>
<path opacity="0.2" fill="#FFFFFF" enable-background="new    " d="M55.367,6.014c0,0-0.14-0.09-0.403-0.216
	c-0.213-0.102-0.441-0.215-0.688-0.294c-0.521-0.168-0.679-0.194-0.745-0.207c-0.254-0.052-0.547-0.089-0.81-0.091L21.916,5.061
	c0,0-0.518,0-0.935,0.091c-0.417,0.091-0.693,0.185-0.971,0.298c-0.278,0.113-0.644,0.301-0.874,0.434
	c-0.23,0.133-0.74,0.489-0.938,0.676C18,6.748,17.856,6.887,17.807,6.943c-0.049,0.056-0.161,0.186-0.208,0.238
	c-0.047,0.052-0.243,0.324-0.254,0.341c-0.01,0.017-0.076,0.11-0.108,0.168c-0.033,0.058-14.714,25.97-14.714,25.97
	s-0.64,1.057-0.827,1.586c-0.08,0.227-0.155,0.502-0.207,0.762c-0.069,0.347-0.103,0.67-0.111,0.834
	c-0.006,0.124-0.015,0.308-0.012,0.49c0.004,0.237,0.022,0.481,0.03,0.588c0.014,0.195,0.087,0.631,0.116,0.759
	c0.029,0.128,0.105,0.407,0.128,0.47c0.006,0.016,0.085,0.249,0.096,0.275c0.011,0.027,0.079,0.201,0.123,0.29
	c0.016,0.032,0.093,0.191,0.096,0.196l15.776,27.217c0,0,0.209,0.309,0.234,0.341c0.009,0.012,0.155,0.201,0.227,0.278
	c0.047,0.05,0.15,0.166,0.205,0.218c0.055,0.053,0.143,0.14,0.184,0.177c0.037,0.034,0.168,0.15,0.209,0.183
	c0.041,0.034,0.199,0.16,0.241,0.192c0.043,0.033,0.263,0.188,0.277,0.198C19.322,68.723,55.367,6.014,55.367,6.014L55.367,6.014z"
	/>
</svg>
